<svg xmlns="http://www.w3.org/2000/svg" width="1920" height="1260" viewBox="0 0 1920 1260">
  <defs>
    <style>
      .cls-1 {
        fill-rule: evenodd;
      }
    </style>
  </defs>
  <path id="Color_Fill_1" data-name="Color Fill 1" class="cls-1" d="M0,0H1920V805c-28.02-.027-50.46-0.411-76-5l-42-6-67,16,3-4q10.995-13.5,22-27,1.005-9,2-18c10.16-55.622-37-84.716-72-103-25.68,9.4-52,17.676-76,28q-1.005-31-2-62c-48.68-23.627-125.25-11.418-189-21l-71-2-78-1c-84.3,0-163.28,7.762-236,18q-1.995,41-4,82,9,56.994,18,114h-9l-34-2c-26.349-4.684-63.6-16.843-95-12l-81,10-47-4c-24.744-5.865-55.876-14.153-91-8-18.978,3.325-40.364,11.65-64,8l-70-2-49,2-40-12c-25.249-4.8-69.156,13.772-92,18l-138-6L0,802V0ZM1679,692c11.58-.346,26.94-1.231,34,3q11.505,16,23,32c9.5,24.5-15.42,59.054-22,71-28.01,3.924-83.73,12.422-109,5q-2.505-6.5-5-13,4.005-9.5,8-19c-0.67-3-1.33-6-2-9q7.005-6.5,14-13l12-39Q1655.505,701,1679,692Z"/>
</svg>
